<?xml version="1.0" encoding="utf-8"?>
<!-- Generator: Adobe Illustrator 19.2.1, SVG Export Plug-In . SVG Version: 6.00 Build 0)  -->
<svg version="1.1" id="Layer_1" xmlns="http://www.w3.org/2000/svg" xmlns:xlink="http://www.w3.org/1999/xlink" x="0px" y="0px"
	 viewBox="0 0 180 180" style="enable-background:new 0 0 180 180;" xml:space="preserve">
<style type="text/css">
	.st0{fill:none;stroke:url(#SVGID_1_);stroke-width:2.7653;stroke-miterlimit:10;}
	.st1{fill:none;stroke:#FFAB91;stroke-width:2.7653;stroke-miterlimit:10;}
	.st2{fill:none;stroke:#FFD600;stroke-width:2.7653;stroke-miterlimit:10;}
</style>
<g>
	<title>Flasherjs</title>
	
		<linearGradient id="SVGID_1_" gradientUnits="userSpaceOnUse" x1="49.358" y1="145.223" x2="127.8842" y2="145.223" gradientTransform="matrix(1 0 0 1 0 -55.223)">
		<stop  offset="0" style="stop-color:#FFAB91"/>
		<stop  offset="1" style="stop-color:#FFD600"/>
	</linearGradient>
	<polyline class="st0" points="52.1,27.5 62.6,27.5 51,92.5 56.5,92.5 72.3,4 77.8,4 62.1,92.5 67.6,92.5 78.4,37.7 83.9,37.7 
		73.1,92.5 78.7,92.5 85.9,55.4 91.4,55.4 69.3,176 74.8,176 91.4,87.5 96.9,87.5 84.5,153.9 90,153.9 102.4,87.5 108,87.5 
		99.7,136.2 105.2,136.2 113.5,87.5 119,87.5 116.8,99.4 127.9,99.4 	"/>
	<circle class="st1" cx="48.8" cy="27.5" r="3.3"/>
	<circle class="st2" cx="131.2" cy="99.7" r="3.3"/>
</g>
</svg>
