<svg xmlns="http://www.w3.org/2000/svg" viewBox="-246.2 372.1 74.1 44.6" enable-background="new -246.2 372.1 74.1 44.6"><path d="M-232.8 396.1v1.6h1.2v1.3h-1.2v2c0 .7.2 1 .7 1h.5v1.3c-.2.1-.6.1-1.1.1-.5 0-1-.2-1.3-.5-.3-.3-.5-.9-.5-1.6v-2.2h-.7v-1.3h.7v-1.2l1.7-.5zm2.2-.9h1.7v3.1c.2-.2.4-.4.7-.6.2-.1.6-.2.9-.2 1.1 0 1.9.7 1.9 2.4v3.2h-1.7v-3c0-.7-.2-1.2-.9-1.2-.4 0-.7.3-.8.6 0 .1-.1.3-.1.4v3.2h-1.7v-7.9zm8.3.9c0 .5-.4.8-.9.8s-.9-.4-.9-.8c0-.5.3-.9.9-.9.6 0 .9.4.9.9zm-1.7 7v-5.5h1.7v5.5h-1.7zm3-3.7v-1.7h1.5l.1.7c.2-.3.8-.9 1.7-.9 1.1 0 2 .7 2 2.3v3.2h-1.7v-3c0-.7-.2-1.2-.9-1.2-.5 0-.7.3-.9.6 0 .1-.1.3-.1.4v3.2h-1.7v-3.6zm11.8-1.8v4.7c0 1.1-.2 1.9-.8 2.5-.6.5-1.4.7-2.2.7-.7 0-1.5-.1-2-.4l.3-1.3c.3.2 1 .4 1.6.4.8 0 1.4-.4 1.4-1.4v-.4c-.3.5-.9.7-1.5.7-1.4 0-2.3-1.1-2.3-2.7 0-1.8 1.1-2.9 2.5-2.9.7 0 1.2.3 1.5.8l.1-.6h1.4zm-1.8 2.3v-.3c-.1-.4-.4-.7-.9-.7-.6 0-1.1.6-1.1 1.6 0 .8.4 1.5 1.1 1.5.4 0 .8-.3.9-.7 0-.1.1-.3.1-.4v-1zm3.1 1.7c.3.2 1 .4 1.5.4s.7-.2.7-.5-.2-.4-.8-.6c-1.1-.4-1.6-1-1.6-1.6 0-1 .9-1.8 2.2-1.8.6 0 1.2.1 1.5.3l-.3 1.2c-.2-.1-.7-.3-1.2-.3-.4 0-.6.2-.6.4 0 .3.2.4.9.6 1 .4 1.5.9 1.5 1.7 0 1-.8 1.8-2.4 1.8-.7 0-1.4-.2-1.8-.4l.4-1.2zm5-.3c.5.2 1.2.5 1.9.5.8 0 1.2-.3 1.2-.8s-.4-.7-1.3-1.1c-1.3-.4-2.1-1.1-2.1-2.2 0-1.3 1.1-2.3 2.9-2.3.9 0 1.5.2 1.9.4l-.4 1.4c-.3-.1-.8-.4-1.6-.4s-1.1.3-1.1.7c0 .5.4.7 1.4 1.1 1.3.5 2 1.2 2 2.2 0 1.3-1 2.3-3 2.3-.9 0-1.7-.2-2.1-.5l.3-1.3zm6-5.6c.6-.1 1.4-.2 2.3-.2 1.4 0 2.4.3 3.1.8.8.6 1.3 1.5 1.3 2.8 0 1.4-.5 2.4-1.3 3.1-.8.7-2 1-3.5 1-.9 0-1.5-.1-1.9-.1v-7.4zm1.7 6.1h.6c1.5 0 2.6-.8 2.6-2.6 0-1.6-.9-2.4-2.4-2.4-.4 0-.6 0-.8.1v4.9zm6-6.2h1.7v3.3c.2-.3.3-.6.5-.8l1.7-2.5h2.1l-2.5 3.2 2.6 4.3h-2l-1.8-3.3-.6.8v2.5h-1.7v-7.5zm3.9-8.4c-1.4-4.6-5.6-7.9-10.6-7.9-1.7 0-3.2.4-4.6 1-3.6-4.5-9.2-7.5-15.4-7.5-10.3 0-18.8 7.9-19.6 18-5.3.7-9.4 5.2-9.4 10.7 0 5.9 4.8 10.7 10.7 10.7h21.6c.6 2 2.4 3.5 4.6 3.5 2.7 0 4.8-2.2 4.8-4.8 0-2.7-2.2-4.8-4.8-4.8-2.1 0-3.9 1.4-4.6 3.3h-21.7c-4.3 0-7.9-3.5-7.9-7.9 0-4 3-7.3 6.9-7.8l2.3-.3.2-2.3c.7-8.6 8.1-15.4 16.8-15.4 5.2 0 10 2.3 13.2 6.4l1.4 1.8 2-.9c1.1-.5 2.2-.8 3.4-.8 3.6 0 6.8 2.4 7.9 5.9l.6 2h2.1c5 .1 9.1 4.4 9.1 9.7 0 5.3-4.2 9.7-9.3 9.7h-3.4c-.7-2-2.6-3.5-4.8-3.5-2.8 0-5.1 2.3-5.1 5.1s2.3 5.1 5.1 5.1c2.3 0 4.3-1.6 4.9-3.8h3.3c6.7 0 12.2-5.6 12.2-12.5 0-7-5.3-12.6-11.9-12.7zm-8.4 25.9c-1.2 0-2.2-1-2.2-2.2 0-1.2 1-2.2 2.2-2.2s2.2 1 2.2 2.2c-.1 1.3-1 2.2-2.2 2.2z"></path></svg>